<mxfile host="app.diagrams.net" modified="2024-02-01T23:32:27.061Z" agent="Mozilla/5.0 (Windows NT 10.0; Win64; x64) AppleWebKit/537.36 (KHTML, like Gecko) Chrome/121.0.0.0 Safari/537.36" etag="FUy8KTUPM7hw_heL-8bZ" version="23.1.1" type="github">
  <diagram name="Page-1" id="CWyrtw6ZwXH4M4BZvd5Z">
    <mxGraphModel dx="977" dy="573" grid="1" gridSize="10" guides="1" tooltips="1" connect="1" arrows="1" fold="1" page="1" pageScale="1" pageWidth="827" pageHeight="1169" math="0" shadow="0">
      <root>
        <mxCell id="0" />
        <mxCell id="1" parent="0" />
        <mxCell id="YuPq11Ape6yLvMML4QTt-6" style="edgeStyle=orthogonalEdgeStyle;rounded=0;orthogonalLoop=1;jettySize=auto;html=1;exitX=0.5;exitY=1;exitDx=0;exitDy=0;entryX=0.5;entryY=0;entryDx=0;entryDy=0;" edge="1" parent="1" source="YuPq11Ape6yLvMML4QTt-1" target="YuPq11Ape6yLvMML4QTt-2">
          <mxGeometry relative="1" as="geometry" />
        </mxCell>
        <mxCell id="YuPq11Ape6yLvMML4QTt-1" value="Commence par un joueur&amp;nbsp;" style="rounded=0;whiteSpace=wrap;html=1;" vertex="1" parent="1">
          <mxGeometry x="160" y="100" width="240" height="60" as="geometry" />
        </mxCell>
        <mxCell id="YuPq11Ape6yLvMML4QTt-7" style="edgeStyle=orthogonalEdgeStyle;rounded=0;orthogonalLoop=1;jettySize=auto;html=1;exitX=0.5;exitY=1;exitDx=0;exitDy=0;entryX=0.5;entryY=0;entryDx=0;entryDy=0;" edge="1" parent="1" source="YuPq11Ape6yLvMML4QTt-2" target="YuPq11Ape6yLvMML4QTt-4">
          <mxGeometry relative="1" as="geometry" />
        </mxCell>
        <mxCell id="YuPq11Ape6yLvMML4QTt-2" value="Sasie du joueur" style="rounded=0;whiteSpace=wrap;html=1;" vertex="1" parent="1">
          <mxGeometry x="160" y="230" width="240" height="60" as="geometry" />
        </mxCell>
        <mxCell id="YuPq11Ape6yLvMML4QTt-9" style="edgeStyle=orthogonalEdgeStyle;rounded=0;orthogonalLoop=1;jettySize=auto;html=1;exitX=1;exitY=0.5;exitDx=0;exitDy=0;entryX=0.5;entryY=0;entryDx=0;entryDy=0;" edge="1" parent="1" source="YuPq11Ape6yLvMML4QTt-4" target="YuPq11Ape6yLvMML4QTt-8">
          <mxGeometry relative="1" as="geometry" />
        </mxCell>
        <mxCell id="YuPq11Ape6yLvMML4QTt-11" style="edgeStyle=orthogonalEdgeStyle;rounded=0;orthogonalLoop=1;jettySize=auto;html=1;exitX=0.5;exitY=1;exitDx=0;exitDy=0;entryX=0.5;entryY=0;entryDx=0;entryDy=0;" edge="1" parent="1" source="YuPq11Ape6yLvMML4QTt-4" target="YuPq11Ape6yLvMML4QTt-10">
          <mxGeometry relative="1" as="geometry" />
        </mxCell>
        <mxCell id="YuPq11Ape6yLvMML4QTt-4" value="Cherche si la partie est gagnante&lt;br&gt;&amp;nbsp;pour un des deux joueur ?" style="rhombus;whiteSpace=wrap;html=1;" vertex="1" parent="1">
          <mxGeometry x="163" y="317" width="235" height="150" as="geometry" />
        </mxCell>
        <mxCell id="YuPq11Ape6yLvMML4QTt-12" style="edgeStyle=orthogonalEdgeStyle;rounded=0;orthogonalLoop=1;jettySize=auto;html=1;exitX=0.5;exitY=1;exitDx=0;exitDy=0;entryX=0.5;entryY=0;entryDx=0;entryDy=0;" edge="1" parent="1" source="YuPq11Ape6yLvMML4QTt-8" target="YuPq11Ape6yLvMML4QTt-10">
          <mxGeometry relative="1" as="geometry">
            <Array as="points">
              <mxPoint x="525" y="572" />
              <mxPoint x="280" y="572" />
            </Array>
          </mxGeometry>
        </mxCell>
        <mxCell id="YuPq11Ape6yLvMML4QTt-15" style="edgeStyle=orthogonalEdgeStyle;rounded=0;orthogonalLoop=1;jettySize=auto;html=1;exitX=1;exitY=0.5;exitDx=0;exitDy=0;entryX=0;entryY=0.5;entryDx=0;entryDy=0;" edge="1" parent="1" source="YuPq11Ape6yLvMML4QTt-20" target="YuPq11Ape6yLvMML4QTt-13">
          <mxGeometry relative="1" as="geometry" />
        </mxCell>
        <mxCell id="YuPq11Ape6yLvMML4QTt-8" value="Partie finie ?" style="rhombus;whiteSpace=wrap;html=1;" vertex="1" parent="1">
          <mxGeometry x="410" y="412" width="230" height="120" as="geometry" />
        </mxCell>
        <mxCell id="YuPq11Ape6yLvMML4QTt-22" style="edgeStyle=orthogonalEdgeStyle;rounded=0;orthogonalLoop=1;jettySize=auto;html=1;entryX=0.5;entryY=0;entryDx=0;entryDy=0;exitX=0.5;exitY=1;exitDx=0;exitDy=0;" edge="1" parent="1" source="YuPq11Ape6yLvMML4QTt-10" target="YuPq11Ape6yLvMML4QTt-1">
          <mxGeometry relative="1" as="geometry">
            <Array as="points">
              <mxPoint x="280" y="740" />
              <mxPoint x="60" y="740" />
              <mxPoint x="60" y="50" />
              <mxPoint x="280" y="50" />
            </Array>
          </mxGeometry>
        </mxCell>
        <mxCell id="YuPq11Ape6yLvMML4QTt-10" value="Message de fin de partie" style="rounded=0;whiteSpace=wrap;html=1;" vertex="1" parent="1">
          <mxGeometry x="190" y="637" width="180" height="60" as="geometry" />
        </mxCell>
        <mxCell id="YuPq11Ape6yLvMML4QTt-14" style="edgeStyle=orthogonalEdgeStyle;rounded=0;orthogonalLoop=1;jettySize=auto;html=1;exitX=0.5;exitY=0;exitDx=0;exitDy=0;entryX=0.5;entryY=0;entryDx=0;entryDy=0;" edge="1" parent="1" source="YuPq11Ape6yLvMML4QTt-13" target="YuPq11Ape6yLvMML4QTt-2">
          <mxGeometry relative="1" as="geometry">
            <mxPoint x="280" y="202" as="targetPoint" />
            <Array as="points">
              <mxPoint x="720" y="192" />
              <mxPoint x="281" y="192" />
            </Array>
          </mxGeometry>
        </mxCell>
        <mxCell id="YuPq11Ape6yLvMML4QTt-13" value="Joueur suivant" style="rounded=0;whiteSpace=wrap;html=1;" vertex="1" parent="1">
          <mxGeometry x="691" y="442" width="120" height="60" as="geometry" />
        </mxCell>
        <mxCell id="YuPq11Ape6yLvMML4QTt-19" value="" style="ellipse;whiteSpace=wrap;html=1;aspect=fixed;" vertex="1" parent="1">
          <mxGeometry x="398" y="377" width="30" height="30" as="geometry" />
        </mxCell>
        <mxCell id="YuPq11Ape6yLvMML4QTt-21" value="" style="edgeStyle=orthogonalEdgeStyle;rounded=0;orthogonalLoop=1;jettySize=auto;html=1;exitX=1;exitY=0.5;exitDx=0;exitDy=0;entryX=0;entryY=0.5;entryDx=0;entryDy=0;" edge="1" parent="1" source="YuPq11Ape6yLvMML4QTt-8" target="YuPq11Ape6yLvMML4QTt-20">
          <mxGeometry relative="1" as="geometry">
            <mxPoint x="640" y="472" as="sourcePoint" />
            <mxPoint x="691" y="472" as="targetPoint" />
          </mxGeometry>
        </mxCell>
        <mxCell id="YuPq11Ape6yLvMML4QTt-20" value="" style="ellipse;whiteSpace=wrap;html=1;aspect=fixed;" vertex="1" parent="1">
          <mxGeometry x="640" y="457" width="30" height="30" as="geometry" />
        </mxCell>
      </root>
    </mxGraphModel>
  </diagram>
</mxfile>
